<svg width="13" height="6" viewBox="0 0 13 6" fill="none" xmlns="http://www.w3.org/2000/svg">
<path d="M8.56 1.91211H0.327C0.240274 1.91211 0.1571 1.94656 0.0957761 2.00788C0.0344517 2.06921 0 2.15238 0 2.23911L0 3.76611C0 3.85283 0.0344517 3.93601 0.0957761 3.99733C0.1571 4.05865 0.240274 4.09311 0.327 4.09311H8.56V5.34911C8.55978 5.47862 8.59802 5.60528 8.66987 5.71303C8.74171 5.82078 8.84394 5.90478 8.96357 5.95437C9.08321 6.00396 9.21488 6.01691 9.34189 5.99159C9.4689 5.96626 9.58553 5.90379 9.677 5.81211L12.024 3.46511C12.0847 3.40437 12.1329 3.33227 12.1658 3.25292C12.1987 3.17356 12.2156 3.0885 12.2156 3.00261C12.2156 2.91671 12.1987 2.83165 12.1658 2.7523C12.1329 2.67294 12.0847 2.60084 12.024 2.54011L9.677 0.192106C9.58553 0.100419 9.4689 0.0379538 9.34189 0.0126274C9.21488 -0.0126991 9.08321 0.000254143 8.96357 0.049845C8.84394 0.0994358 8.74171 0.183431 8.66987 0.291184C8.59802 0.398937 8.55978 0.525596 8.56 0.655106V1.91211Z" fill="#06C167"/>
</svg>
