<svg width="23" height="11" viewBox="0 0 23 11" fill="none" xmlns="http://www.w3.org/2000/svg">
<path d="M15.684 3.50195H0.6C0.44087 3.50195 0.288258 3.56516 0.175736 3.67768C0.0632141 3.79021 0 3.94282 0 4.10195L0 6.90195C0 6.98074 0.0155195 7.05876 0.0456723 7.13156C0.0758251 7.20435 0.120021 7.2705 0.175736 7.32621C0.231451 7.38193 0.297595 7.42612 0.37039 7.45628C0.443185 7.48643 0.521207 7.50195 0.6 7.50195H15.684V9.80195C15.6844 10.0389 15.755 10.2705 15.8868 10.4674C16.0186 10.6643 16.2058 10.8178 16.4247 10.9085C16.6437 10.9992 16.8846 11.0231 17.117 10.9771C17.3495 10.931 17.5631 10.8172 17.731 10.6499L22.031 6.34995C22.1429 6.23846 22.2316 6.10599 22.2922 5.96013C22.3528 5.81427 22.3839 5.65789 22.3839 5.49995C22.3839 5.34201 22.3528 5.18563 22.2922 5.03977C22.2316 4.8939 22.1429 4.76143 22.031 4.64995L17.731 0.349949C17.5631 0.182681 17.3495 0.0688617 17.117 0.0228433C16.8846 -0.023175 16.6437 0.000667259 16.4247 0.0913648C16.2058 0.182062 16.0186 0.335554 15.8868 0.532485C15.755 0.729416 15.6844 0.96097 15.684 1.19795V3.50195Z" fill="#06C167"/>
</svg>
